<svg xmlns="http://www.w3.org/2000/svg" width="209" height="37" fill="none"><title>Bungie</title><path d="M136.701 5.503c5.119 0 7.767 2.152 9.488 3.83l.371.357a.947.947 0 0 0 1.345-.008l2.304-2.368a.96.96 0 0 0-.023-1.352l-.36-.33c-2.304-2.119-6.509-5.38-13.632-5.38-5.513 0-10.238 2.031-13.587 5.296-3.349 3.269-5.316 7.771-5.316 12.71 0 5.877 2.402 10.406 5.964 13.459 3.554 3.052 8.252 4.631 12.852 4.631 10.173-.011 14.382-4.529 15.314-5.713l.133-.167a1.319 1.319 0 0 1 .166-.228l.013-.014.008-.008.006-.005a.445.445 0 0 0 .015-.133V18.296a.959.959 0 0 0-.955-.956h-12.2a.961.961 0 0 0-.958.956v3.19c0 .53.431.96.958.96h6.949c.53 0 .962.433.962.957v3.682c0 .531-.113 1.052-.246 1.165l-.189.145c-.076.06-.156.117-.239.17-1.383 1-4.054 2.537-9.503 2.537-8.6-.004-13.814-5.965-13.817-12.62.007-7.114 5.167-12.983 14.181-12.987l-.004.008ZM37.949 22.666c0 3.269.618 6.723 2.834 9.377 2.216 2.65 6.024 4.465 12.325 4.457h.004c6.3 0 10.105-1.807 12.325-4.457 2.216-2.654 2.834-6.112 2.834-9.377V2.094a.96.96 0 0 0-.955-.96h-3.315a.96.96 0 0 0-.959.96v20.572c-.026 4.992-2 8.565-9.934 8.591-7.934-.026-9.904-3.599-9.934-8.59V2.093a.963.963 0 0 0-.959-.96H38.9a.957.957 0 0 0-.955.96v20.572h.004Z" fill="#fff"/><path fill-rule="evenodd" clip-rule="evenodd" d="M.955 35.767A.957.957 0 0 1 0 34.811V2.097c0-.527.428-.956.955-.956h17.603c5.107.011 11.131 2.885 11.135 9.494 0 3.283-2.08 5.194-3.44 6.44a28.5 28.5 0 0 0-.459.428c1.96.995 4.589 3.914 4.593 8.143 0 3.31-1.289 5.862-3.414 7.563-2.13 1.7-5.085 2.562-8.415 2.562H.955v-.004Zm5.225-15.01a.962.962 0 0 0-.955.956v7.855c0 .528.432.96.955.96H18.56c4.581-.022 6.59-1.681 6.6-4.89-.018-2.995-1.477-4.855-6.6-4.885H6.18v.003Zm12.381-5.243c3.323-.004 5.904-1.921 5.911-4.882-.008-2.635-2.474-4.241-5.91-4.249H6.18a.959.959 0 0 0-.955.957v7.217c0 .524.432.957.955.957H18.56Z" fill="#fff"/><path d="M103.519 26.303c.322.414.587.326.587-.201h.004V2.097c0-.531.428-.96.958-.96h3.316c.522 0 .954.433.954.96v32.717a.959.959 0 0 1-.954.957h-3.24c-.527 0-1.224-.334-1.546-.752L84.563 10.61c-.326-.414-.59-.327-.59.205v24.004a.96.96 0 0 1-.956.96h-3.319a.963.963 0 0 1-.958-.96V2.098a.96.96 0 0 1 .958-.961h3.24c.526 0 1.22.342 1.546.755l19.035 24.411ZM165.015 13.927h-3.307a.96.96 0 0 0-.959.957v19.93c0 .528.432.96.959.96h3.307a.963.963 0 0 0 .959-.96v-19.93a.958.958 0 0 0-.959-.957ZM180.121 29.572c0 .527.432.96.959.96l-.004.004H201.9c.526 0 .958.425.958.957v3.325c0 .528-.435.96-.958.96h-26.049a.963.963 0 0 1-.958-.96V2.098a.96.96 0 0 1 .958-.961h25.185c.523 0 .955.433.955.96v3.33c0 .527-.432.96-.955.96H181.08a.962.962 0 0 0-.959.957v6.803a.96.96 0 0 0 .959.957h13.113c.527 0 .959.433.959.956v3.33a.962.962 0 0 1-.959.956H181.08a.962.962 0 0 0-.959.957v8.269Z" fill="#fff"/><path fill-rule="evenodd" clip-rule="evenodd" d="M207.625 2.803c-.122-.049-.311-.075-.572-.075l.003.003h-.731v2.107h.368v-.831h.291c.197 0 .334.023.41.068.128.08.197.243.197.486v.167l.007.069c.003.005.003.01.004.014v.008c.002.002.002.006.003.01a.06.06 0 0 1 .001.01h.344l-.011-.027a.279.279 0 0 1-.019-.11c-.004-.057-.004-.107-.004-.156V4.39a.592.592 0 0 0-.113-.326.515.515 0 0 0-.36-.205.853.853 0 0 0 .303-.103c.136-.09.204-.227.204-.417 0-.266-.109-.444-.325-.536Zm-.622.183c.205 0 .353.022.444.076.094.053.14.148.14.31 0 .164-.072.274-.216.331-.076.03-.193.046-.349.046h-.333v-.763h.314Z" fill="#fff"/><path fill-rule="evenodd" clip-rule="evenodd" d="M207.09 5.72c.527 0 .978-.19 1.349-.567.372-.375.557-.831.557-1.362 0-.532-.185-.984-.557-1.356a1.843 1.843 0 0 0-1.349-.558c-.522 0-.973.186-1.341.558a1.854 1.854 0 0 0-.557 1.356c0 .531.182.987.553 1.362.368.376.819.566 1.345.566Zm-1.636-1.93c0-.455.159-.846.477-1.169a1.567 1.567 0 0 1 1.156-.486c.451 0 .837.164 1.159.486a1.6 1.6 0 0 1 .477 1.17c0 .459-.159.854-.477 1.176a1.57 1.57 0 0 1-1.159.486c-.455 0-.842-.16-1.16-.486a1.637 1.637 0 0 1-.473-1.176Z" fill="#fff"/><path d="M158.445 5.746a4.923 4.923 0 0 1 4.918-4.928 4.922 4.922 0 0 1 4.918 4.928 4.92 4.92 0 0 1-4.918 4.927 4.92 4.92 0 0 1-4.918-4.927Z" fill="#fff"/></svg>